<svg width="1024" height="768" viewBox="0 0 1024 768" fill="none" xmlns="http://www.w3.org/2000/svg">
<g clip-path="url(#clip0_32_12386)">
<mask id="mask0_32_12386" style="mask-type:luminance" maskUnits="userSpaceOnUse" x="1" y="-6" width="1372" height="773">
<path d="M1.26904 -6H1372.73V766.567H1.26904V-6Z" fill="white"/>
</mask>
<g mask="url(#mask0_32_12386)">
<path d="M1.26904 -6H1372.73V766.567H1.26904V-6Z" fill="white"/>
</g>
<mask id="mask1_32_12386" style="mask-type:luminance" maskUnits="userSpaceOnUse" x="0" y="0" width="1026" height="767">
<path d="M0 0.482422H1026V766.567H0V0.482422Z" fill="white"/>
</mask>
<g mask="url(#mask1_32_12386)">
<path d="M-95.6579 174.143C-95.6579 241.194 -70.6622 301.061 -31.9189 339.376C-20.0448 351.351 -26.9163 375.297 -41.9155 375.297H-151.274C-241.886 376.096 -315 469.492 -315 585.239C-315 700.982 -241.886 794.377 -151.274 794.377H454.258C544.87 794.377 617.984 700.982 617.984 585.239C617.984 578.055 617.984 571.67 617.358 565.28C609.856 468.692 667.35 384.08 742.963 384.08H939.182C1029.79 384.08 1102.91 290.685 1102.91 174.937C1103.53 58.3954 1030.42 -35 939.808 -35H68.0685C-22.5439 -35 -95.6579 58.3954 -95.6579 174.143Z" fill="#F9F9F9"/>
</g>
<mask id="mask2_32_12386" style="mask-type:luminance" maskUnits="userSpaceOnUse" x="1" y="-6" width="685" height="454">
<path d="M1.26904 -6H685.569V447.527H1.26904V-6Z" fill="white"/>
</mask>
<g mask="url(#mask2_32_12386)">
<path d="M-320.997 40.0179C-320.997 84.1264 -300.02 123.51 -267.515 148.716C-257.552 156.594 -263.317 172.349 -275.901 172.349H-367.664C-443.693 172.87 -505.041 234.307 -505.041 310.453C-505.041 386.593 -443.693 448.031 -367.664 448.031H140.43C216.465 448.031 277.813 386.593 277.813 310.453C277.813 305.728 277.813 301.523 277.288 297.324C270.998 233.787 319.236 178.122 382.68 178.122H547.33C623.36 178.122 684.708 116.684 684.708 40.5442C685.233 -36.1224 623.885 -97.5598 547.856 -97.5598H-183.614C-259.649 -97.5598 -320.997 -36.1224 -320.997 40.0179Z" fill="#F2F2F2"/>
</g>
<mask id="mask3_32_12386" style="mask-type:luminance" maskUnits="userSpaceOnUse" x="0" y="-6" width="281" height="133">
<path d="M0 -6H280.476V126.241H0V-6Z" fill="white"/>
</mask>
<g mask="url(#mask3_32_12386)">
<path d="M-56.5001 -10.5582C-56.5001 4.20094 -49.4814 17.3822 -38.6032 25.8137C-35.2689 28.4516 -37.1986 33.7233 -41.4082 33.7233H-72.1131C-97.558 33.8986 -118.085 54.4555 -118.085 79.9374C-118.085 105.415 -97.558 125.972 -72.1131 125.972H97.9079C123.349 125.972 143.876 105.415 143.876 79.9374C143.876 78.3555 143.876 76.9489 143.701 75.5423C141.596 54.2801 157.738 35.6559 178.969 35.6559H234.065C259.506 35.6559 280.037 15.095 280.037 -10.3829C280.212 -36.0361 259.681 -56.597 234.24 -56.597H-10.5282C-35.9691 -56.597 -56.5001 -36.0361 -56.5001 -10.5582Z" fill="#F15A29"/>
</g>
<mask id="mask4_32_12386" style="mask-type:luminance" maskUnits="userSpaceOnUse" x="159" y="50" width="34" height="34">
<path d="M159.619 50.198H192.51V83.1423H159.619V50.198Z" fill="white"/>
</mask>
<g mask="url(#mask4_32_12386)">
<mask id="mask5_32_12386" style="mask-type:luminance" maskUnits="userSpaceOnUse" x="159" y="50" width="34" height="34">
<path d="M176.067 50.198C166.982 50.198 159.619 57.5719 159.619 66.6702C159.619 75.7629 166.982 83.1423 176.067 83.1423C185.147 83.1423 192.51 75.7629 192.51 66.6702C192.51 57.5719 185.147 50.198 176.067 50.198Z" fill="white"/>
</mask>
<g mask="url(#mask5_32_12386)">
<path d="M159.619 50.198H192.51V83.1423H159.619V50.198Z" fill="#F15A29"/>
</g>
</g>
<mask id="mask6_32_12386" style="mask-type:luminance" maskUnits="userSpaceOnUse" x="732" y="1" width="214" height="59">
<path d="M732.97 1.28314H945.623V59.877H732.97V1.28314Z" fill="white"/>
</mask>
<g mask="url(#mask6_32_12386)">
<path d="M737.529 -54.4016C737.529 -54.1142 737.474 -53.8317 737.36 -53.5641C737.251 -53.2964 737.093 -53.0586 736.889 -52.8554C736.681 -52.6472 736.448 -52.4886 736.181 -52.3796C735.913 -52.2656 735.636 -52.2111 735.343 -52.2111C735.056 -52.2111 734.774 -52.2706 734.506 -52.3796C734.239 -52.4936 734.006 -52.6522 733.803 -52.8554C733.594 -53.0635 733.436 -53.3014 733.327 -53.569C733.218 -53.8366 733.163 -54.1142 733.163 -54.4066C733.163 -54.699 733.218 -54.9765 733.332 -55.2441C733.441 -55.5117 733.599 -55.7496 733.807 -55.9578C734.011 -56.161 734.248 -56.3196 734.516 -56.4286C734.784 -56.5376 735.061 -56.5971 735.353 -56.5921C735.641 -56.5921 735.918 -56.5376 736.186 -56.4236C736.453 -56.3146 736.686 -56.156 736.889 -55.9528C737.097 -55.7447 737.251 -55.5068 737.365 -55.2392C737.474 -54.9716 737.529 -54.694 737.529 -54.4016ZM758.443 -56.5921C758.151 -56.5971 757.873 -56.5376 757.606 -56.4286C757.338 -56.3196 757.1 -56.161 756.897 -55.9578C756.689 -55.7496 756.53 -55.5117 756.421 -55.2441C756.307 -54.9765 756.253 -54.699 756.253 -54.4066C756.253 -54.1142 756.307 -53.8366 756.416 -53.569C756.53 -53.3014 756.684 -53.0635 756.892 -52.8554C757.095 -52.6522 757.333 -52.4936 757.601 -52.3796C757.868 -52.2706 758.146 -52.2111 758.433 -52.2111C758.725 -52.2111 759.003 -52.2656 759.27 -52.3796C759.538 -52.4886 759.776 -52.6472 759.979 -52.8554C760.182 -53.0586 760.341 -53.2964 760.455 -53.5641C760.564 -53.8317 760.618 -54.1142 760.618 -54.4016C760.618 -54.694 760.564 -54.9716 760.455 -55.2392C760.341 -55.5068 760.187 -55.7447 759.984 -55.9528C759.776 -56.156 759.543 -56.3146 759.275 -56.4236C759.008 -56.5376 758.73 -56.5921 758.443 -56.5921ZM781.528 -56.5921C781.235 -56.5921 780.958 -56.5376 780.69 -56.4286C780.423 -56.3146 780.19 -56.156 779.982 -55.9528C779.779 -55.7447 779.62 -55.5117 779.511 -55.2441C779.397 -54.9716 779.343 -54.694 779.343 -54.4016C779.343 -54.1142 779.397 -53.8317 779.511 -53.5641C779.62 -53.2964 779.779 -53.0586 779.982 -52.8554C780.19 -52.6472 780.423 -52.4886 780.69 -52.3796C780.958 -52.2706 781.235 -52.2111 781.528 -52.2111C781.815 -52.2111 782.092 -52.2706 782.36 -52.3796C782.628 -52.4886 782.865 -52.6472 783.069 -52.8554C783.277 -53.0586 783.435 -53.2964 783.544 -53.5641C783.653 -53.8317 783.708 -54.1142 783.708 -54.4016C783.708 -54.694 783.653 -54.9716 783.544 -55.2441C783.435 -55.5117 783.277 -55.7447 783.069 -55.9528C782.865 -56.156 782.628 -56.3146 782.36 -56.4286C782.092 -56.5376 781.815 -56.5921 781.528 -56.5921ZM804.627 -56.5921C804.34 -56.5921 804.062 -56.5376 803.795 -56.4286C803.527 -56.3146 803.289 -56.156 803.086 -55.9528C802.878 -55.7447 802.725 -55.5117 802.611 -55.2441C802.502 -54.9716 802.447 -54.694 802.447 -54.4016C802.447 -54.1142 802.502 -53.8317 802.611 -53.5641C802.725 -53.2964 802.878 -53.0586 803.086 -52.8554C803.289 -52.6472 803.527 -52.4886 803.795 -52.3796C804.062 -52.2706 804.34 -52.2111 804.627 -52.2111C804.92 -52.2111 805.197 -52.2706 805.465 -52.3796C805.732 -52.4886 805.97 -52.6472 806.173 -52.8554C806.376 -53.0586 806.535 -53.2964 806.644 -53.5641C806.758 -53.8317 806.812 -54.1142 806.812 -54.4016C806.812 -54.694 806.758 -54.9716 806.644 -55.2441C806.535 -55.5117 806.376 -55.7447 806.173 -55.9528C805.97 -56.156 805.732 -56.3146 805.465 -56.4286C805.197 -56.5376 804.92 -56.5921 804.627 -56.5921ZM827.722 -56.5921C827.429 -56.5921 827.152 -56.5376 826.884 -56.4286C826.617 -56.3146 826.379 -56.156 826.176 -55.9528C825.973 -55.7447 825.814 -55.5117 825.7 -55.2441C825.591 -54.9716 825.537 -54.694 825.537 -54.4016C825.537 -54.1142 825.591 -53.8317 825.7 -53.5641C825.814 -53.2964 825.973 -53.0586 826.176 -52.8554C826.379 -52.6472 826.617 -52.4886 826.884 -52.3796C827.152 -52.2706 827.429 -52.2111 827.722 -52.2111C828.009 -52.2111 828.287 -52.2706 828.554 -52.3796C828.822 -52.4886 829.06 -52.6472 829.263 -52.8554C829.466 -53.0586 829.624 -53.2964 829.738 -53.5641C829.847 -53.8317 829.902 -54.1142 829.902 -54.4016C829.902 -54.694 829.847 -54.9765 829.733 -55.2441C829.624 -55.5117 829.466 -55.7496 829.258 -55.9578C829.055 -56.161 828.817 -56.3196 828.549 -56.4286C828.277 -56.5426 827.999 -56.5971 827.707 -56.5921H827.722ZM850.796 -56.5921C850.509 -56.5971 850.232 -56.5376 849.964 -56.4286C849.697 -56.3196 849.459 -56.161 849.251 -55.9578C849.047 -55.7496 848.889 -55.5117 848.78 -55.2441C848.666 -54.9765 848.611 -54.699 848.611 -54.4066C848.611 -54.1142 848.666 -53.8366 848.775 -53.569C848.884 -53.3014 849.042 -53.0635 849.246 -52.8554C849.454 -52.6522 849.687 -52.4936 849.954 -52.3796C850.222 -52.2706 850.499 -52.2111 850.792 -52.2111C851.079 -52.2111 851.361 -52.2656 851.629 -52.3796C851.896 -52.4886 852.129 -52.6472 852.337 -52.8554C852.541 -53.0586 852.699 -53.2964 852.808 -53.5641C852.922 -53.8317 852.977 -54.1142 852.977 -54.4016C852.977 -54.694 852.922 -54.9716 852.808 -55.2392C852.699 -55.5068 852.541 -55.7447 852.337 -55.9528C852.134 -56.156 851.901 -56.3146 851.634 -56.4236C851.366 -56.5376 851.089 -56.5921 850.796 -56.5921ZM873.891 -56.5921C873.599 -56.5921 873.321 -56.5327 873.059 -56.4236C872.791 -56.3097 872.558 -56.1511 872.355 -55.9429C872.152 -55.7348 871.993 -55.4969 871.884 -55.2293C871.775 -54.9616 871.721 -54.6841 871.721 -54.3917C871.726 -54.1043 871.78 -53.8218 871.894 -53.5542C872.003 -53.2865 872.162 -53.0536 872.37 -52.8504C872.573 -52.6423 872.811 -52.4886 873.078 -52.3746C873.346 -52.2656 873.623 -52.2111 873.911 -52.2111C874.198 -52.2111 874.481 -52.2706 874.743 -52.3796C875.011 -52.4936 875.249 -52.6522 875.452 -52.8554C875.655 -53.0635 875.814 -53.2964 875.923 -53.5641C876.032 -53.8366 876.091 -54.1142 876.091 -54.4016C876.091 -54.694 876.032 -54.9765 875.923 -55.2441C875.809 -55.5167 875.65 -55.7546 875.442 -55.9578C875.239 -56.1659 875.001 -56.3245 874.728 -56.4335C874.461 -56.5426 874.178 -56.5971 873.891 -56.5921ZM896.976 -56.5921C896.683 -56.5921 896.406 -56.5376 896.138 -56.4286C895.871 -56.3146 895.638 -56.156 895.43 -55.9528C895.227 -55.7447 895.068 -55.5117 894.959 -55.2441C894.845 -54.9716 894.791 -54.694 894.791 -54.4016C894.791 -54.1142 894.845 -53.8317 894.959 -53.5641C895.068 -53.2964 895.227 -53.0586 895.43 -52.8554C895.638 -52.6472 895.871 -52.4886 896.138 -52.3796C896.406 -52.2706 896.683 -52.2111 896.976 -52.2111C897.263 -52.2111 897.541 -52.2706 897.808 -52.3796C898.076 -52.4886 898.314 -52.6472 898.517 -52.8554C898.725 -53.0586 898.878 -53.2964 898.992 -53.5641C899.101 -53.8317 899.156 -54.1142 899.156 -54.4016C899.156 -54.694 899.101 -54.9716 898.992 -55.2441C898.878 -55.5117 898.725 -55.7447 898.517 -55.9528C898.314 -56.156 898.076 -56.3146 897.808 -56.4286C897.541 -56.5376 897.263 -56.5921 896.976 -56.5921ZM920.065 -56.5921C919.778 -56.5921 919.496 -56.5376 919.228 -56.4286C918.96 -56.3146 918.728 -56.156 918.519 -55.9528C918.316 -55.7447 918.158 -55.5117 918.049 -55.2441C917.94 -54.9716 917.88 -54.694 917.88 -54.4016C917.88 -54.1142 917.94 -53.8317 918.049 -53.5641C918.158 -53.2964 918.316 -53.0586 918.519 -52.8554C918.728 -52.6472 918.96 -52.4886 919.228 -52.3796C919.496 -52.2706 919.778 -52.2111 920.065 -52.2111C920.353 -52.2111 920.635 -52.2706 920.903 -52.3796C921.17 -52.4886 921.403 -52.6472 921.606 -52.8554C921.814 -53.0586 921.973 -53.2964 922.082 -53.5641C922.191 -53.8317 922.25 -54.1142 922.25 -54.4016C922.25 -54.694 922.191 -54.9716 922.082 -55.2441C921.973 -55.5117 921.814 -55.7447 921.606 -55.9528C921.403 -56.156 921.17 -56.3146 920.903 -56.4286C920.635 -56.5376 920.353 -56.5921 920.065 -56.5921ZM943.155 -52.2161C943.447 -52.2161 943.725 -52.2755 943.992 -52.3846C944.26 -52.4985 944.493 -52.6571 944.701 -52.8603C944.904 -53.0685 945.063 -53.3014 945.172 -53.574C945.286 -53.8416 945.34 -54.1191 945.34 -54.4115C945.34 -54.7039 945.281 -54.9815 945.172 -55.2491C945.063 -55.5167 944.904 -55.7546 944.696 -55.9578C944.493 -56.1659 944.255 -56.3245 943.987 -56.4335C943.72 -56.5475 943.442 -56.6021 943.15 -56.6021C942.863 -56.5971 942.585 -56.5426 942.318 -56.4335C942.05 -56.3196 941.812 -56.161 941.609 -55.9528C941.406 -55.7496 941.247 -55.5117 941.138 -55.2441C941.024 -54.9716 940.97 -54.694 940.975 -54.4016C940.975 -54.1142 941.029 -53.8366 941.138 -53.569C941.252 -53.3014 941.411 -53.0635 941.614 -52.8603C941.817 -52.6522 942.055 -52.4936 942.323 -52.3846C942.59 -52.2755 942.868 -52.2161 943.155 -52.2161ZM735.353 -34.1815C735.061 -34.1815 734.784 -34.1269 734.516 -34.0179C734.248 -33.9089 734.011 -33.7503 733.807 -33.5421C733.599 -33.3389 733.441 -33.1011 733.332 -32.8334C733.218 -32.5658 733.163 -32.2883 733.163 -31.9959C733.163 -31.7035 733.218 -31.426 733.327 -31.1583C733.436 -30.8858 733.594 -30.6479 733.803 -30.4447C734.006 -30.2365 734.239 -30.0779 734.506 -29.9689C734.774 -29.8549 735.056 -29.8004 735.343 -29.8004C735.636 -29.8004 735.913 -29.8549 736.181 -29.9689C736.448 -30.0779 736.681 -30.2365 736.889 -30.4397C737.093 -30.6479 737.251 -30.8858 737.36 -31.1534C737.474 -31.421 737.529 -31.6985 737.529 -31.9909C737.529 -32.2833 737.474 -32.5609 737.365 -32.8285C737.251 -33.0961 737.097 -33.334 736.889 -33.5372C736.686 -33.7453 736.453 -33.9039 736.186 -34.013C735.918 -34.1269 735.641 -34.1815 735.353 -34.1815ZM758.443 -34.1815C758.151 -34.1815 757.873 -34.1269 757.606 -34.0179C757.338 -33.9089 757.1 -33.7503 756.897 -33.5421C756.689 -33.3389 756.53 -33.1011 756.421 -32.8334C756.307 -32.5658 756.253 -32.2883 756.253 -31.9959C756.253 -31.7035 756.307 -31.426 756.416 -31.1583C756.53 -30.8858 756.684 -30.6479 756.892 -30.4447C757.095 -30.2365 757.333 -30.0779 757.601 -29.9689C757.868 -29.8549 758.146 -29.8004 758.433 -29.8004C758.725 -29.8004 759.003 -29.8549 759.27 -29.9689C759.538 -30.0779 759.776 -30.2365 759.979 -30.4397C760.182 -30.6479 760.341 -30.8858 760.455 -31.1534C760.564 -31.421 760.618 -31.6985 760.618 -31.9909C760.618 -32.2833 760.564 -32.5609 760.455 -32.8285C760.341 -33.0961 760.187 -33.334 759.984 -33.5372C759.776 -33.7453 759.543 -33.9039 759.275 -34.013C759.008 -34.1269 758.73 -34.1815 758.443 -34.1815ZM781.528 -34.1815C781.235 -34.1815 780.958 -34.1269 780.69 -34.0179C780.423 -33.9039 780.19 -33.7453 779.982 -33.5421C779.779 -33.334 779.62 -33.0961 779.511 -32.8285C779.397 -32.5609 779.343 -32.2833 779.343 -31.9909C779.343 -31.6985 779.397 -31.421 779.511 -31.1534C779.62 -30.8858 779.779 -30.6479 779.982 -30.4447C780.19 -30.2365 780.423 -30.0779 780.69 -29.9689C780.958 -29.8549 781.235 -29.8004 781.528 -29.8004C781.815 -29.8004 782.092 -29.8549 782.36 -29.9689C782.628 -30.0779 782.865 -30.2365 783.069 -30.4447C783.277 -30.6479 783.435 -30.8858 783.544 -31.1534C783.653 -31.421 783.708 -31.6985 783.708 -31.9909C783.708 -32.2833 783.653 -32.5609 783.544 -32.8285C783.435 -33.0961 783.277 -33.334 783.069 -33.5421C782.865 -33.7453 782.628 -33.9039 782.36 -34.0179C782.092 -34.1269 781.815 -34.1815 781.528 -34.1815ZM804.627 -34.1815C804.34 -34.1815 804.062 -34.1269 803.795 -34.0179C803.527 -33.9039 803.289 -33.7453 803.086 -33.5421C802.878 -33.334 802.725 -33.0961 802.611 -32.8285C802.502 -32.5609 802.447 -32.2833 802.447 -31.9909C802.447 -31.6985 802.502 -31.421 802.611 -31.1534C802.725 -30.8858 802.878 -30.6479 803.086 -30.4447C803.289 -30.2365 803.527 -30.0779 803.795 -29.9689C804.062 -29.8549 804.34 -29.8004 804.627 -29.8004C804.92 -29.8004 805.197 -29.8549 805.465 -29.9689C805.732 -30.0779 805.97 -30.2365 806.173 -30.4447C806.376 -30.6479 806.535 -30.8858 806.644 -31.1534C806.758 -31.421 806.812 -31.6985 806.812 -31.9909C806.812 -32.2833 806.758 -32.5609 806.644 -32.8285C806.535 -33.0961 806.376 -33.334 806.173 -33.5421C805.97 -33.7453 805.732 -33.9039 805.465 -34.0179C805.197 -34.1269 804.92 -34.1815 804.627 -34.1815ZM827.722 -34.1815C827.429 -34.1815 827.152 -34.1269 826.884 -34.0179C826.617 -33.9039 826.379 -33.7453 826.176 -33.5421C825.973 -33.334 825.814 -33.0961 825.7 -32.8285C825.591 -32.5609 825.537 -32.2833 825.537 -31.9909C825.537 -31.6985 825.591 -31.421 825.7 -31.1534C825.814 -30.8858 825.973 -30.6479 826.176 -30.4447C826.379 -30.2365 826.617 -30.0779 826.884 -29.9689C827.152 -29.8549 827.429 -29.8004 827.722 -29.8004C828.009 -29.8004 828.287 -29.8549 828.554 -29.9689C828.822 -30.0779 829.06 -30.2365 829.263 -30.4447C829.466 -30.6479 829.624 -30.8858 829.738 -31.1534C829.847 -31.421 829.902 -31.6985 829.902 -31.9909C829.902 -32.2833 829.847 -32.5609 829.733 -32.8334C829.624 -33.1011 829.466 -33.3389 829.258 -33.5421C829.055 -33.7503 828.817 -33.9089 828.549 -34.0179C828.277 -34.1269 827.999 -34.1815 827.707 -34.1815H827.722ZM850.811 -34.1815C850.519 -34.1815 850.242 -34.1269 849.974 -34.0179C849.706 -33.9089 849.469 -33.7503 849.265 -33.5421C849.057 -33.3389 848.899 -33.1011 848.79 -32.8334C848.676 -32.5658 848.621 -32.2883 848.621 -31.9959C848.621 -31.7035 848.676 -31.426 848.785 -31.1583C848.899 -30.8858 849.052 -30.6479 849.26 -30.4447C849.464 -30.2365 849.701 -30.0779 849.969 -29.9689C850.237 -29.8549 850.514 -29.8004 850.801 -29.8004C851.094 -29.8004 851.371 -29.8549 851.639 -29.9689C851.906 -30.0779 852.144 -30.2365 852.347 -30.4397C852.551 -30.6479 852.709 -30.8858 852.823 -31.1534C852.932 -31.421 852.987 -31.6985 852.987 -31.9909C852.987 -32.2833 852.932 -32.5609 852.818 -32.8334C852.709 -33.1011 852.551 -33.3389 852.347 -33.5421C852.139 -33.7503 851.906 -33.9039 851.634 -34.0179C851.366 -34.1269 851.089 -34.1815 850.796 -34.1815H850.811ZM873.901 -34.1815C873.609 -34.1815 873.331 -34.1269 873.064 -34.0179C872.796 -33.9089 872.558 -33.7503 872.355 -33.5421C872.152 -33.3389 871.993 -33.1011 871.879 -32.8334C871.77 -32.5658 871.711 -32.2883 871.711 -31.9959C871.711 -31.7035 871.765 -31.426 871.879 -31.1583C871.988 -30.8858 872.147 -30.6479 872.35 -30.4447C872.553 -30.2365 872.791 -30.0779 873.059 -29.9689C873.326 -29.8549 873.604 -29.8004 873.891 -29.8004C874.183 -29.8004 874.461 -29.8549 874.728 -29.9689C874.996 -30.0779 875.234 -30.2365 875.437 -30.4397C875.645 -30.6479 875.799 -30.8858 875.913 -31.1534C876.022 -31.421 876.076 -31.6985 876.076 -31.9909C876.076 -32.2833 876.022 -32.5609 875.913 -32.8334C875.799 -33.1011 875.64 -33.3389 875.437 -33.5421C875.229 -33.7503 874.996 -33.9039 874.728 -34.0179C874.456 -34.1269 874.178 -34.1815 873.891 -34.1815H873.901ZM896.986 -34.1815C896.698 -34.1815 896.416 -34.1269 896.148 -34.0179C895.881 -33.9039 895.648 -33.7453 895.44 -33.5421C895.237 -33.334 895.078 -33.0961 894.969 -32.8285C894.86 -32.5609 894.801 -32.2833 894.801 -31.9909C894.801 -31.6985 894.86 -31.421 894.969 -31.1534C895.078 -30.8858 895.237 -30.6479 895.44 -30.4447C895.648 -30.2365 895.881 -30.0779 896.148 -29.9689C896.416 -29.8549 896.698 -29.8004 896.986 -29.8004C897.273 -29.8004 897.555 -29.8549 897.823 -29.9689C898.091 -30.0779 898.323 -30.2365 898.532 -30.4447C898.735 -30.6479 898.893 -30.8858 899.002 -31.1534C899.111 -31.421 899.171 -31.6985 899.171 -31.9909C899.171 -32.2833 899.111 -32.5609 899.002 -32.8334C898.888 -33.1011 898.73 -33.3389 898.527 -33.5421C898.318 -33.7503 898.081 -33.9089 897.813 -34.0179C897.546 -34.1269 897.263 -34.1815 896.976 -34.1815H896.986ZM920.075 -34.1815C919.788 -34.1815 919.51 -34.1269 919.243 -34.0179C918.975 -33.9039 918.737 -33.7453 918.534 -33.5421C918.326 -33.334 918.173 -33.0961 918.059 -32.8285C917.95 -32.5609 917.895 -32.2833 917.895 -31.9909C917.895 -31.6985 917.95 -31.421 918.059 -31.1534C918.173 -30.8858 918.326 -30.6479 918.534 -30.4447C918.737 -30.2365 918.975 -30.0779 919.243 -29.9689C919.51 -29.8549 919.788 -29.8004 920.075 -29.8004C920.368 -29.8004 920.645 -29.8549 920.913 -29.9689C921.18 -30.0779 921.413 -30.2365 921.621 -30.4447C921.824 -30.6479 921.983 -30.8858 922.092 -31.1534C922.206 -31.421 922.26 -31.6985 922.26 -31.9909C922.26 -32.2833 922.206 -32.5609 922.092 -32.8334C921.983 -33.1011 921.819 -33.3389 921.616 -33.5421C921.408 -33.7503 921.17 -33.9089 920.903 -34.0179C920.635 -34.1269 920.358 -34.1815 920.065 -34.1815H920.075ZM943.165 -34.1815C942.877 -34.1864 942.595 -34.1369 942.327 -34.0278C942.06 -33.9188 941.817 -33.7652 941.609 -33.562C941.401 -33.3588 941.242 -33.1258 941.128 -32.8582C941.014 -32.5906 940.955 -32.3081 940.95 -32.0157C940.945 -31.7283 941 -31.4458 941.109 -31.1782C941.218 -30.9056 941.371 -30.6677 941.574 -30.4596C941.777 -30.2514 942.01 -30.0879 942.278 -29.9739C942.545 -29.8599 942.823 -29.8054 943.115 -29.8004C943.403 -29.8004 943.685 -29.85 943.953 -29.959C944.22 -30.073 944.458 -30.2266 944.666 -30.4298C944.874 -30.638 945.033 -30.8709 945.147 -31.1435C945.256 -31.4111 945.315 -31.6886 945.315 -31.981C945.32 -32.2685 945.266 -32.551 945.157 -32.8186C945.048 -33.0862 944.889 -33.3241 944.691 -33.5273C944.488 -33.7354 944.25 -33.894 943.987 -34.008C943.72 -34.122 943.442 -34.1815 943.155 -34.1815H943.165ZM735.353 -11.741C735.061 -11.741 734.784 -11.6865 734.516 -11.5775C734.248 -11.4685 734.016 -11.3099 733.807 -11.1067C733.604 -10.9035 733.446 -10.6656 733.332 -10.398C733.223 -10.1304 733.163 -9.85283 733.163 -9.56042C733.163 -9.27298 733.213 -8.99545 733.322 -8.72287C733.431 -8.45525 733.589 -8.21737 733.793 -8.01418C733.996 -7.80603 734.229 -7.64743 734.496 -7.53345C734.764 -7.41946 735.041 -7.36495 735.329 -7.35999C735.616 -7.35999 735.898 -7.40955 736.166 -7.51858C736.434 -7.62761 736.671 -7.7862 736.875 -7.9894C737.083 -8.19259 737.241 -8.42552 737.355 -8.69314C737.469 -8.96076 737.524 -9.23829 737.529 -9.53069C737.534 -9.82309 737.479 -10.1006 737.37 -10.3732C737.261 -10.6458 737.102 -10.8837 736.899 -11.0918C736.696 -11.3 736.458 -11.4585 736.191 -11.5725C735.923 -11.6865 735.641 -11.741 735.353 -11.741ZM758.443 -11.741C758.151 -11.741 757.873 -11.6865 757.606 -11.5775C757.338 -11.4685 757.1 -11.3099 756.897 -11.1017C756.689 -10.8985 756.53 -10.6606 756.421 -10.393C756.307 -10.1254 756.253 -9.84291 756.253 -9.55547C756.253 -9.26307 756.307 -8.98058 756.421 -8.71296C756.53 -8.44534 756.689 -8.20746 756.892 -8.00426C757.095 -7.79612 757.333 -7.63753 757.601 -7.5285C757.868 -7.41451 758.151 -7.35999 758.438 -7.35999C758.73 -7.35999 759.008 -7.41451 759.275 -7.5285C759.543 -7.64248 759.776 -7.80107 759.984 -8.00426C760.187 -8.21241 760.346 -8.4503 760.455 -8.71791C760.564 -8.98554 760.618 -9.26802 760.618 -9.55547C760.618 -9.84787 760.564 -10.1254 760.45 -10.393C760.341 -10.6606 760.182 -10.8936 759.979 -11.1017C759.776 -11.3049 759.543 -11.4635 759.275 -11.5725C759.008 -11.6865 758.73 -11.741 758.443 -11.741ZM781.528 -11.741C781.24 -11.741 780.958 -11.6865 780.695 -11.5775C780.428 -11.4635 780.19 -11.3099 779.987 -11.1017C779.784 -10.8985 779.625 -10.6606 779.511 -10.393C779.402 -10.1254 779.348 -9.84787 779.343 -9.56042C779.343 -9.26802 779.397 -8.99049 779.506 -8.72287C779.615 -8.45525 779.774 -8.21737 779.977 -8.00922C780.18 -7.80603 780.413 -7.64248 780.68 -7.53345C780.948 -7.41946 781.225 -7.36495 781.513 -7.35999C781.8 -7.35999 782.078 -7.41451 782.345 -7.51858C782.613 -7.62761 782.851 -7.7862 783.059 -7.9894C783.262 -8.19259 783.42 -8.42552 783.534 -8.69314C783.648 -8.96076 783.708 -9.23829 783.708 -9.53069C783.713 -9.82309 783.658 -10.1056 783.549 -10.3732C783.44 -10.6458 783.282 -10.8837 783.079 -11.0918C782.875 -11.3 782.638 -11.4585 782.365 -11.5725C782.097 -11.6865 781.82 -11.741 781.528 -11.741ZM804.617 -11.741C804.33 -11.741 804.047 -11.6865 803.78 -11.5775C803.512 -11.4635 803.279 -11.3049 803.071 -11.1017C802.868 -10.8936 802.71 -10.6557 802.601 -10.3881C802.492 -10.1204 802.432 -9.83796 802.432 -9.55051C802.437 -9.25811 802.492 -8.98058 802.601 -8.71296C802.715 -8.44038 802.873 -8.20746 803.076 -7.99931C803.279 -7.79612 803.517 -7.63753 803.785 -7.5285C804.052 -7.41451 804.33 -7.35999 804.622 -7.35999C804.91 -7.35999 805.187 -7.41946 805.455 -7.5285C805.722 -7.64248 805.96 -7.80107 806.163 -8.00426C806.366 -8.21241 806.525 -8.4503 806.634 -8.71791C806.748 -8.98554 806.802 -9.26802 806.802 -9.55547C806.797 -9.84787 806.743 -10.1254 806.634 -10.393C806.525 -10.6557 806.366 -10.8936 806.163 -11.0968C805.96 -11.3049 805.727 -11.4635 805.46 -11.5725C805.192 -11.6865 804.915 -11.741 804.627 -11.741H804.617ZM827.707 -11.741C827.419 -11.741 827.142 -11.6865 826.874 -11.5775C826.607 -11.4635 826.369 -11.3049 826.166 -11.1017C825.958 -10.8936 825.799 -10.6557 825.69 -10.3881C825.581 -10.1204 825.527 -9.83796 825.527 -9.55051C825.527 -9.25811 825.581 -8.98058 825.69 -8.71296C825.804 -8.44038 825.963 -8.20746 826.166 -7.99931C826.374 -7.79612 826.607 -7.63753 826.874 -7.5285C827.142 -7.41451 827.424 -7.35999 827.712 -7.35999C827.999 -7.35999 828.282 -7.41946 828.549 -7.5285C828.817 -7.64248 829.05 -7.80107 829.253 -8.00426C829.461 -8.21241 829.614 -8.4503 829.728 -8.71791C829.837 -8.98554 829.892 -9.26802 829.892 -9.55547C829.892 -9.84787 829.833 -10.1254 829.723 -10.393C829.614 -10.6606 829.456 -10.8985 829.248 -11.1017C829.045 -11.3049 828.807 -11.4635 828.544 -11.5775C828.277 -11.6865 827.999 -11.741 827.707 -11.741ZM850.796 -11.741C850.509 -11.741 850.232 -11.6865 849.964 -11.5775C849.697 -11.4685 849.459 -11.3099 849.251 -11.1017C849.047 -10.8985 848.889 -10.6606 848.78 -10.393C848.666 -10.1254 848.611 -9.84291 848.611 -9.55547C848.611 -9.26307 848.666 -8.98058 848.775 -8.71296C848.889 -8.44534 849.042 -8.20746 849.251 -8.00426C849.454 -7.79612 849.692 -7.63753 849.959 -7.5285C850.227 -7.41451 850.504 -7.35999 850.796 -7.35999C851.084 -7.35999 851.361 -7.41451 851.629 -7.5285C851.896 -7.64248 852.134 -7.80107 852.337 -8.00426C852.546 -8.21241 852.699 -8.4503 852.813 -8.71791C852.922 -8.98554 852.977 -9.26802 852.977 -9.55547C852.977 -9.84787 852.917 -10.1254 852.808 -10.393C852.699 -10.6606 852.541 -10.8936 852.337 -11.1017C852.134 -11.3049 851.896 -11.4635 851.629 -11.5725C851.366 -11.6865 851.089 -11.741 850.796 -11.741ZM873.891 -11.741C873.599 -11.741 873.326 -11.6816 873.059 -11.5725C872.791 -11.4585 872.558 -11.3 872.355 -11.0918C872.152 -10.8886 871.998 -10.6507 871.889 -10.3831C871.775 -10.1155 871.721 -9.83796 871.726 -9.54556C871.726 -9.25811 871.78 -8.98058 871.889 -8.71296C871.998 -8.44534 872.157 -8.20746 872.36 -8.00426C872.563 -7.80107 872.801 -7.64248 873.064 -7.5285C873.331 -7.41946 873.609 -7.35999 873.896 -7.35999C874.183 -7.35999 874.461 -7.41451 874.728 -7.52354C874.996 -7.63257 875.234 -7.7862 875.437 -7.9894C875.645 -8.19259 875.804 -8.43047 875.918 -8.69314C876.027 -8.96076 876.086 -9.23829 876.091 -9.53069C876.091 -9.82309 876.036 -10.1056 875.928 -10.3782C875.818 -10.6507 875.66 -10.8886 875.452 -11.0968C875.244 -11.3049 875.006 -11.4685 874.733 -11.5775C874.466 -11.6915 874.183 -11.746 873.891 -11.741ZM896.976 -11.741C896.683 -11.741 896.406 -11.6865 896.138 -11.5775C895.871 -11.4635 895.633 -11.3049 895.43 -11.1017C895.227 -10.8936 895.068 -10.6557 894.959 -10.3881C894.845 -10.1204 894.791 -9.83796 894.791 -9.55051C894.791 -9.25811 894.845 -8.98058 894.959 -8.71296C895.068 -8.44038 895.227 -8.20746 895.435 -7.99931C895.638 -7.79612 895.876 -7.63753 896.143 -7.5285C896.411 -7.41451 896.688 -7.35999 896.976 -7.35999C897.268 -7.35999 897.546 -7.41946 897.813 -7.5285C898.081 -7.64248 898.318 -7.80107 898.522 -8.00426C898.725 -8.21241 898.883 -8.4503 898.992 -8.71791C899.101 -8.98554 899.156 -9.26802 899.156 -9.55547C899.156 -9.84787 899.101 -10.1254 898.987 -10.393C898.878 -10.6606 898.72 -10.8985 898.517 -11.1017C898.314 -11.3049 898.076 -11.4635 897.808 -11.5775C897.541 -11.6865 897.263 -11.741 896.976 -11.741ZM920.065 -11.741C919.773 -11.741 919.496 -11.6865 919.228 -11.5775C918.96 -11.4635 918.728 -11.3049 918.519 -11.1017C918.316 -10.8936 918.158 -10.6557 918.049 -10.3881C917.935 -10.1204 917.88 -9.83796 917.88 -9.55051C917.88 -9.25811 917.94 -8.98058 918.049 -8.71296C918.163 -8.44038 918.316 -8.20746 918.524 -7.99931C918.728 -7.79612 918.965 -7.63753 919.233 -7.5285C919.5 -7.41451 919.778 -7.35999 920.07 -7.35999C920.358 -7.35999 920.635 -7.41946 920.903 -7.5285C921.17 -7.64248 921.408 -7.80107 921.611 -8.00426C921.814 -8.21241 921.973 -8.4503 922.082 -8.71791C922.196 -8.98554 922.25 -9.26802 922.25 -9.55547C922.245 -9.84787 922.191 -10.1254 922.082 -10.393C921.968 -10.6606 921.809 -10.8985 921.606 -11.1017C921.403 -11.3049 921.165 -11.4635 920.898 -11.5775C920.63 -11.6865 920.353 -11.741 920.065 -11.741ZM943.155 -11.741C942.868 -11.746 942.585 -11.6915 942.318 -11.5824C942.05 -11.4734 941.812 -11.3198 941.604 -11.1166C941.401 -10.9134 941.237 -10.6755 941.123 -10.4128C941.009 -10.1452 940.955 -9.86274 940.95 -9.57529C940.95 -9.28289 941 -9.00536 941.109 -8.73278C941.218 -8.46516 941.371 -8.22728 941.574 -8.01913C941.777 -7.81098 942.01 -7.65239 942.278 -7.53841C942.545 -7.42442 942.823 -7.36495 943.11 -7.35999C943.403 -7.35999 943.68 -7.40955 943.948 -7.51858C944.215 -7.62761 944.453 -7.78125 944.661 -7.98444C944.869 -8.18763 945.028 -8.42552 945.142 -8.69314C945.256 -8.96076 945.315 -9.23829 945.315 -9.53069C945.32 -9.81813 945.266 -10.1006 945.157 -10.3682C945.053 -10.6408 944.894 -10.8787 944.691 -11.0868C944.488 -11.29 944.255 -11.4536 943.987 -11.5676C943.725 -11.6816 943.447 -11.741 943.155 -11.741ZM735.353 10.6697C735.061 10.6697 734.784 10.7242 734.516 10.8332C734.248 10.9422 734.016 11.1008 733.807 11.304C733.604 11.5122 733.446 11.7451 733.332 12.0127C733.223 12.2803 733.163 12.5579 733.163 12.8503C733.163 13.1377 733.213 13.4202 733.322 13.6878C733.431 13.9554 733.589 14.1933 733.793 14.4015C733.996 14.6047 734.229 14.7682 734.496 14.8772C734.764 14.9912 735.041 15.0507 735.329 15.0507C735.616 15.0556 735.898 15.0011 736.166 14.8921C736.434 14.7831 736.671 14.6245 736.875 14.4213C737.083 14.2181 737.241 13.9852 737.355 13.7176C737.469 13.4499 737.524 13.1724 737.529 12.885C737.529 12.5926 737.474 12.3101 737.365 12.0424C737.256 11.7748 737.097 11.5369 736.894 11.3288C736.691 11.1206 736.453 10.9621 736.186 10.8481C735.918 10.739 735.641 10.6796 735.353 10.6796V10.6697ZM758.443 10.6697C758.151 10.6697 757.873 10.7242 757.606 10.8332C757.338 10.9472 757.1 11.1008 756.897 11.309C756.689 11.5122 756.53 11.75 756.421 12.0177C756.307 12.2853 756.253 12.5678 756.253 12.8552C756.253 13.1476 756.307 13.4251 756.416 13.6977C756.53 13.9653 756.684 14.2032 756.892 14.4064C757.095 14.6146 757.333 14.7732 757.601 14.8822C757.868 14.9962 758.146 15.0507 758.433 15.0507C758.725 15.0507 759.003 14.9962 759.27 14.8871C759.538 14.7732 759.776 14.6146 759.979 14.4114C760.182 14.2032 760.341 13.9703 760.455 13.6977C760.564 13.4301 760.618 13.1526 760.618 12.8602C760.618 12.5727 760.564 12.2952 760.45 12.0276C760.341 11.76 760.182 11.527 759.979 11.3189C759.776 11.1157 759.538 10.9571 759.27 10.8481C759.008 10.739 758.73 10.6796 758.443 10.6796V10.6697ZM781.528 10.6697C781.24 10.6697 780.958 10.7242 780.695 10.8382C780.428 10.9472 780.19 11.1058 779.987 11.309C779.784 11.5122 779.625 11.75 779.511 12.0177C779.402 12.2853 779.348 12.5628 779.343 12.8552C779.343 13.1427 779.397 13.4202 779.506 13.6928C779.615 13.9604 779.774 14.1983 779.977 14.4015C780.18 14.6096 780.413 14.7682 780.68 14.8772C780.948 14.9912 781.225 15.0507 781.513 15.0507C781.8 15.0556 782.078 15.0011 782.345 14.8921C782.613 14.7831 782.851 14.6245 783.059 14.4213C783.262 14.2181 783.42 13.9852 783.534 13.7176C783.648 13.4499 783.708 13.1724 783.708 12.885C783.713 12.5926 783.658 12.3101 783.549 12.0424C783.435 11.7699 783.282 11.532 783.074 11.3288C782.87 11.1206 782.633 10.9621 782.365 10.8481C782.097 10.739 781.815 10.6796 781.528 10.6796V10.6697ZM804.617 10.6697C804.33 10.6697 804.047 10.7242 803.78 10.8382C803.512 10.9472 803.279 11.1058 803.076 11.3139C802.868 11.5171 802.71 11.755 802.601 12.0226C802.492 12.2902 802.432 12.5678 802.432 12.8602C802.432 13.1526 802.492 13.4301 802.601 13.6977C802.71 13.9653 802.868 14.2032 803.076 14.4114C803.279 14.6146 803.512 14.7732 803.78 14.8871C804.047 14.9962 804.33 15.0507 804.617 15.0507C804.905 15.0507 805.187 14.9962 805.455 14.8871C805.722 14.7732 805.955 14.6146 806.163 14.4114C806.366 14.2032 806.525 13.9653 806.634 13.6977C806.743 13.4301 806.802 13.1526 806.802 12.8602C806.797 12.5727 806.743 12.2952 806.634 12.0276C806.52 11.76 806.366 11.527 806.163 11.3238C805.96 11.1206 805.722 10.9621 805.46 10.8481C805.192 10.739 804.915 10.6845 804.627 10.6796L804.617 10.6697ZM827.707 10.6697C827.419 10.6697 827.142 10.7242 826.874 10.8382C826.607 10.9472 826.369 11.1058 826.166 11.3139C825.958 11.5171 825.804 11.755 825.69 12.0226C825.581 12.2902 825.527 12.5678 825.527 12.8602C825.527 13.1526 825.581 13.4301 825.69 13.6977C825.804 13.9653 825.958 14.2032 826.166 14.4114C826.369 14.6146 826.607 14.7732 826.874 14.8871C827.142 14.9962 827.419 15.0507 827.707 15.0507C827.999 15.0507 828.277 14.9962 828.544 14.8871C828.812 14.7732 829.045 14.6146 829.253 14.4114C829.456 14.2032 829.614 13.9653 829.723 13.6977C829.837 13.4301 829.892 13.1526 829.892 12.8602C829.892 12.5727 829.833 12.2952 829.723 12.0276C829.61 11.76 829.451 11.5221 829.248 11.3189C829.045 11.1157 828.807 10.9571 828.539 10.8481C828.277 10.7341 827.994 10.6796 827.707 10.6796V10.6697ZM850.796 10.6697C850.509 10.6697 850.232 10.7242 849.964 10.8332C849.697 10.9472 849.459 11.1008 849.251 11.309C849.047 11.5122 848.889 11.75 848.78 12.0177C848.666 12.2853 848.611 12.5678 848.611 12.8552C848.611 13.1476 848.666 13.4251 848.775 13.6977C848.884 13.9653 849.042 14.2032 849.246 14.4064C849.454 14.6146 849.687 14.7732 849.954 14.8822C850.222 14.9962 850.499 15.0507 850.792 15.0507C851.079 15.0507 851.361 14.9962 851.629 14.8871C851.896 14.7732 852.129 14.6146 852.337 14.4114C852.541 14.2032 852.699 13.9703 852.808 13.6977C852.922 13.4301 852.977 13.1526 852.977 12.8602C852.977 12.5727 852.917 12.2952 852.808 12.0276C852.694 11.76 852.541 11.527 852.332 11.3189C852.129 11.1157 851.896 10.9571 851.629 10.8481C851.361 10.739 851.089 10.6796 850.796 10.6796V10.6697ZM873.891 10.6697C873.599 10.6697 873.326 10.7291 873.059 10.8431C872.791 10.9521 872.558 11.1157 872.355 11.3189C872.152 11.5221 871.998 11.76 871.889 12.0276C871.775 12.2952 871.721 12.5727 871.726 12.8651C871.726 13.1526 871.78 13.4301 871.889 13.6977C871.998 13.9653 872.157 14.2032 872.36 14.4064C872.563 14.6146 872.801 14.7732 873.064 14.8822C873.331 14.9962 873.609 15.0507 873.896 15.0507C874.183 15.0507 874.461 14.9962 874.728 14.8871C874.996 14.7781 875.234 14.6245 875.437 14.4213C875.645 14.2181 875.804 13.9852 875.918 13.7176C876.027 13.4499 876.086 13.1724 876.091 12.885C876.091 12.5926 876.036 12.3101 875.923 12.0375C875.814 11.7649 875.655 11.527 875.447 11.3189C875.239 11.1157 875.001 10.9571 874.733 10.8431C874.461 10.7341 874.183 10.6796 873.891 10.6796V10.6697ZM896.976 10.6697C896.683 10.6697 896.406 10.7242 896.138 10.8382C895.871 10.9472 895.638 11.1058 895.43 11.3139C895.227 11.5171 895.068 11.755 894.959 12.0226C894.845 12.2902 894.791 12.5678 894.791 12.8602C894.791 13.1526 894.845 13.4301 894.959 13.6977C895.068 13.9653 895.227 14.2032 895.43 14.4114C895.638 14.6146 895.871 14.7732 896.138 14.8871C896.406 14.9962 896.683 15.0507 896.976 15.0507C897.263 15.0507 897.541 14.9962 897.808 14.8871C898.076 14.7732 898.314 14.6146 898.517 14.4114C898.725 14.2032 898.878 13.9653 898.992 13.6977C899.101 13.4301 899.156 13.1526 899.156 12.8602C899.156 12.5727 899.101 12.2952 898.987 12.0276C898.878 11.76 898.72 11.5221 898.512 11.3189C898.309 11.1157 898.076 10.9571 897.808 10.8481C897.541 10.7341 897.263 10.6796 896.976 10.6796V10.6697ZM920.065 10.6697C919.778 10.6697 919.496 10.7242 919.228 10.8382C918.96 10.9472 918.728 11.1058 918.519 11.3139C918.316 11.5171 918.158 11.755 918.049 12.0226C917.94 12.2902 917.88 12.5678 917.88 12.8602C917.88 13.1526 917.94 13.4301 918.049 13.6977C918.158 13.9653 918.316 14.2032 918.519 14.4114C918.728 14.6146 918.96 14.7732 919.228 14.8871C919.496 14.9962 919.778 15.0507 920.065 15.0507C920.353 15.0507 920.635 14.9962 920.903 14.8871C921.17 14.7732 921.403 14.6146 921.606 14.4114C921.814 14.2032 921.973 13.9653 922.082 13.6977C922.191 13.4301 922.25 13.1526 922.25 12.8602C922.245 12.5727 922.191 12.2952 922.077 12.0276C921.968 11.76 921.809 11.5221 921.606 11.3189C921.398 11.1157 921.165 10.9571 920.898 10.8481C920.63 10.7341 920.353 10.6796 920.065 10.6796V10.6697ZM943.155 10.6697C942.868 10.6647 942.585 10.7192 942.318 10.8282C942.05 10.9373 941.812 11.0909 941.604 11.2941C941.401 11.4973 941.237 11.7352 941.123 12.0028C941.009 12.2704 940.955 12.548 940.95 12.8404C940.95 13.1278 941 13.4103 941.109 13.6779C941.218 13.9455 941.371 14.1884 941.574 14.3916C941.777 14.5997 942.01 14.7633 942.278 14.8772C942.545 14.9912 942.823 15.0507 943.11 15.0507C943.403 15.0556 943.68 15.0011 943.948 14.8921C944.215 14.7831 944.453 14.6294 944.661 14.4262C944.869 14.2231 945.028 13.9852 945.142 13.7176C945.256 13.4549 945.315 13.1724 945.315 12.885C945.32 12.5926 945.266 12.315 945.157 12.0474C945.048 11.7798 944.889 11.5419 944.691 11.3337C944.488 11.1306 944.25 10.967 943.987 10.853C943.72 10.744 943.442 10.6845 943.155 10.6796V10.6697ZM735.353 33.1101C735.061 33.1101 734.784 33.1646 734.516 33.2736C734.248 33.3876 734.011 33.5412 733.803 33.7494C733.599 33.9526 733.441 34.1905 733.332 34.4581C733.218 34.7307 733.163 35.0082 733.163 35.3006C733.163 35.588 733.218 35.8705 733.327 36.1381C733.441 36.4058 733.599 36.6437 733.803 36.8518C734.006 37.055 734.243 37.2136 734.511 37.3276C734.779 37.4366 735.056 37.4911 735.348 37.4911C735.636 37.4911 735.918 37.4366 736.186 37.3226C736.453 37.2136 736.686 37.055 736.889 36.8468C737.097 36.6437 737.256 36.4058 737.365 36.1332C737.474 35.8656 737.529 35.588 737.529 35.2956C737.529 35.0032 737.474 34.7257 737.36 34.4581C737.251 34.1905 737.093 33.9575 736.889 33.7494C736.686 33.5462 736.448 33.3876 736.186 33.2786C735.918 33.1646 735.641 33.1101 735.353 33.1101ZM758.443 33.1101C758.151 33.1101 757.873 33.1646 757.606 33.2736C757.338 33.3876 757.1 33.5412 756.897 33.7494C756.689 33.9526 756.53 34.1905 756.421 34.4581C756.307 34.7307 756.253 35.0082 756.253 35.3006C756.253 35.588 756.307 35.8705 756.421 36.1381C756.53 36.4058 756.689 36.6437 756.892 36.8518C757.095 37.055 757.333 37.2136 757.601 37.3276C757.868 37.4366 758.151 37.4911 758.438 37.4911C758.73 37.4911 759.008 37.4366 759.275 37.3226C759.543 37.2136 759.776 37.055 759.984 36.8468C760.187 36.6437 760.346 36.4058 760.455 36.1332C760.564 35.8656 760.618 35.588 760.618 35.2956C760.618 35.0032 760.564 34.7257 760.45 34.4581C760.341 34.1905 760.182 33.9575 759.979 33.7494C759.776 33.5462 759.543 33.3876 759.275 33.2786C759.008 33.1646 758.73 33.1101 758.443 33.1101ZM781.528 33.1101C781.235 33.1101 780.958 33.1646 780.69 33.2786C780.423 33.3876 780.19 33.5462 779.982 33.7543C779.779 33.9575 779.62 34.1954 779.511 34.463C779.397 34.7307 779.343 35.0132 779.343 35.3006C779.343 35.593 779.402 35.8705 779.511 36.1431C779.62 36.4107 779.779 36.6486 779.987 36.8518C780.19 37.055 780.428 37.2136 780.695 37.3276C780.963 37.4366 781.24 37.4911 781.533 37.4911C781.82 37.4911 782.097 37.4366 782.365 37.3226C782.633 37.2136 782.87 37.055 783.074 36.8468C783.277 36.6387 783.435 36.4008 783.544 36.1332C783.658 35.8656 783.713 35.588 783.708 35.2956C783.708 35.0032 783.653 34.7257 783.544 34.4581C783.43 34.1905 783.272 33.9526 783.069 33.7494C782.865 33.5462 782.628 33.3876 782.36 33.2786C782.092 33.1646 781.815 33.1101 781.528 33.1101ZM804.617 33.1101C804.33 33.1101 804.047 33.1646 803.78 33.2786C803.512 33.3876 803.279 33.5462 803.071 33.7543C802.868 33.9575 802.71 34.1954 802.601 34.463C802.492 34.7307 802.432 35.0132 802.432 35.3006C802.437 35.593 802.492 35.8705 802.601 36.1431C802.715 36.4107 802.873 36.6486 803.076 36.8518C803.279 37.055 803.517 37.2136 803.785 37.3276C804.052 37.4366 804.33 37.4911 804.622 37.4911C804.91 37.4911 805.187 37.4366 805.455 37.3226C805.722 37.2136 805.96 37.055 806.163 36.8468C806.366 36.6387 806.525 36.4008 806.634 36.1332C806.748 35.8656 806.802 35.588 806.802 35.2956C806.797 35.0082 806.743 34.7257 806.634 34.463C806.525 34.1954 806.366 33.9575 806.163 33.7543C805.96 33.5512 805.727 33.3926 805.46 33.2786C805.192 33.1695 804.915 33.1101 804.627 33.1101H804.617ZM827.707 33.1101C827.419 33.1101 827.142 33.1646 826.874 33.2786C826.607 33.3876 826.369 33.5462 826.166 33.7543C825.958 33.9575 825.799 34.1954 825.69 34.463C825.581 34.7307 825.527 35.0132 825.527 35.3006C825.527 35.593 825.581 35.8705 825.69 36.1431C825.804 36.4107 825.963 36.6486 826.166 36.8518C826.374 37.055 826.607 37.2136 826.874 37.3276C827.142 37.4366 827.424 37.4911 827.712 37.4911C827.999 37.4911 828.282 37.4366 828.549 37.3226C828.817 37.2136 829.05 37.055 829.253 36.8468C829.461 36.6387 829.614 36.4008 829.728 36.1332C829.837 35.8656 829.892 35.588 829.892 35.2956C829.892 35.0032 829.833 34.7257 829.723 34.4581C829.614 34.1905 829.456 33.9526 829.248 33.7494C829.045 33.5462 828.807 33.3876 828.544 33.2786C828.277 33.1646 827.999 33.1101 827.707 33.1101ZM850.796 33.1101C850.509 33.1101 850.232 33.1646 849.964 33.2736C849.697 33.3876 849.459 33.5412 849.251 33.7494C849.047 33.9526 848.889 34.1905 848.78 34.4581C848.666 34.7307 848.611 35.0082 848.611 35.3006C848.611 35.588 848.666 35.8705 848.775 36.1381C848.889 36.4058 849.042 36.6437 849.251 36.8518C849.454 37.055 849.692 37.2136 849.959 37.3276C850.227 37.4366 850.504 37.4911 850.796 37.4911C851.084 37.4911 851.361 37.4366 851.629 37.3226C851.896 37.2136 852.134 37.055 852.337 36.8468C852.546 36.6437 852.699 36.4058 852.813 36.1332C852.922 35.8656 852.977 35.588 852.977 35.2956C852.977 35.0032 852.917 34.7257 852.808 34.4581C852.699 34.1905 852.541 33.9575 852.337 33.7494C852.134 33.5462 851.896 33.3876 851.629 33.2786C851.366 33.1646 851.089 33.1101 850.796 33.1101ZM873.891 33.1101C873.599 33.1101 873.321 33.1695 873.059 33.2835C872.791 33.3975 872.553 33.5561 872.35 33.7643C872.147 33.9675 871.993 34.2053 871.884 34.473C871.775 34.7455 871.721 35.0231 871.721 35.3155C871.726 35.6029 871.78 35.8804 871.894 36.1481C872.008 36.4157 872.167 36.6536 872.37 36.8568C872.578 37.06 872.811 37.2185 873.078 37.3276C873.346 37.4366 873.628 37.4911 873.916 37.4911C874.203 37.4911 874.481 37.4316 874.748 37.3226C875.016 37.2086 875.249 37.05 875.457 36.8468C875.66 36.6387 875.814 36.4008 875.928 36.1332C876.036 35.8656 876.091 35.5831 876.091 35.2956C876.086 35.0032 876.032 34.7257 875.918 34.4531C875.809 34.1855 875.65 33.9476 875.442 33.7444C875.234 33.5363 874.996 33.3827 874.728 33.2736C874.461 33.1596 874.178 33.1101 873.891 33.1101ZM896.976 33.1101C896.683 33.1101 896.406 33.1646 896.138 33.2786C895.871 33.3876 895.633 33.5462 895.43 33.7543C895.227 33.9575 895.068 34.1954 894.959 34.463C894.845 34.7307 894.791 35.0132 894.791 35.3006C894.791 35.593 894.845 35.8705 894.959 36.1431C895.068 36.4107 895.227 36.6486 895.435 36.8518C895.638 37.055 895.876 37.2136 896.143 37.3276C896.411 37.4366 896.688 37.4911 896.981 37.4911C897.268 37.4911 897.546 37.4366 897.813 37.3226C898.081 37.2136 898.318 37.05 898.522 36.8468C898.725 36.6387 898.883 36.4008 898.992 36.1332C899.101 35.8656 899.156 35.588 899.156 35.2956C899.156 35.0032 899.101 34.7257 898.987 34.4581C898.878 34.1905 898.72 33.9526 898.517 33.7494C898.314 33.5462 898.076 33.3876 897.808 33.2786C897.541 33.1646 897.263 33.1101 896.976 33.1101ZM920.065 33.1101C919.773 33.1101 919.496 33.1646 919.228 33.2786C918.96 33.3876 918.728 33.5462 918.519 33.7543C918.316 33.9575 918.158 34.1954 918.049 34.463C917.935 34.7307 917.88 35.0132 917.88 35.3006C917.88 35.593 917.94 35.8705 918.049 36.1431C918.163 36.4107 918.316 36.6486 918.524 36.8518C918.728 37.055 918.965 37.2136 919.233 37.3276C919.5 37.4366 919.778 37.4911 920.07 37.4911C920.358 37.4911 920.635 37.4366 920.903 37.3226C921.17 37.2136 921.408 37.05 921.611 36.8468C921.814 36.6387 921.973 36.4008 922.082 36.1332C922.196 35.8656 922.25 35.588 922.25 35.2956C922.245 35.0032 922.191 34.7257 922.082 34.4581C921.968 34.1905 921.809 33.9526 921.606 33.7494C921.403 33.5462 921.165 33.3876 920.898 33.2786C920.63 33.1646 920.353 33.1101 920.065 33.1101ZM943.155 33.1101C942.868 33.1051 942.585 33.1596 942.318 33.2687C942.045 33.3777 941.807 33.5363 941.604 33.7395C941.396 33.9427 941.237 34.1806 941.123 34.4482C941.009 34.7158 940.95 34.9983 940.95 35.2857C940.95 35.5781 941.005 35.8606 941.114 36.1282C941.223 36.4008 941.381 36.6387 941.584 36.8419C941.787 37.05 942.025 37.2086 942.293 37.3226C942.56 37.4366 942.838 37.4911 943.13 37.4911C943.418 37.4911 943.7 37.4366 943.968 37.3276C944.235 37.2136 944.473 37.055 944.676 36.8468C944.884 36.6437 945.043 36.4058 945.152 36.1381C945.261 35.8656 945.315 35.588 945.315 35.2956C945.315 35.0082 945.261 34.7307 945.152 34.463C945.043 34.1954 944.884 33.9625 944.681 33.7593C944.483 33.5512 944.245 33.3926 943.982 33.2835C943.72 33.1695 943.442 33.115 943.155 33.1101ZM735.353 55.5208C735.061 55.5208 734.784 55.5753 734.516 55.6893C734.248 55.7983 734.011 55.9569 733.803 56.1601C733.599 56.3682 733.441 56.6012 733.332 56.8737C733.218 57.1413 733.163 57.4189 733.163 57.7113C733.163 58.0037 733.218 58.2812 733.327 58.5488C733.441 58.8214 733.599 59.0543 733.803 59.2625C734.006 59.4657 734.243 59.6243 734.511 59.7383C734.779 59.8473 735.056 59.9018 735.348 59.9018C735.636 59.9018 735.918 59.8473 736.186 59.7333C736.453 59.6243 736.686 59.4657 736.889 59.2575C737.097 59.0543 737.256 58.8165 737.365 58.5488C737.474 58.2763 737.529 57.9987 737.529 57.7063C737.529 57.4189 737.469 57.1413 737.36 56.8737C737.246 56.6111 737.088 56.3732 736.884 56.17C736.681 55.9668 736.448 55.8082 736.181 55.6992C735.913 55.5901 735.641 55.5356 735.353 55.5356V55.5208ZM758.443 55.5208C758.151 55.5208 757.873 55.5753 757.606 55.6843C757.338 55.7983 757.1 55.9569 756.897 56.1601C756.689 56.3633 756.53 56.6012 756.421 56.8688C756.307 57.1364 756.253 57.4189 756.253 57.7113C756.253 57.9987 756.307 58.2812 756.416 58.5488C756.53 58.8165 756.684 59.0543 756.892 59.2575C757.095 59.4657 757.333 59.6243 757.601 59.7383C757.868 59.8473 758.146 59.9018 758.433 59.9018C758.725 59.9018 759.003 59.8473 759.27 59.7383C759.538 59.6243 759.776 59.4657 759.979 59.2625C760.182 59.0593 760.341 58.8214 760.455 58.5538C760.564 58.2812 760.618 58.0037 760.618 57.7113C760.618 57.4238 760.564 57.1463 760.45 56.8787C760.341 56.6111 760.182 56.3781 759.979 56.1749C759.776 55.9668 759.538 55.8132 759.27 55.6992C759.008 55.5901 758.73 55.5356 758.443 55.5356V55.5208ZM781.528 55.5208C781.235 55.5208 780.958 55.5753 780.69 55.6893C780.423 55.7983 780.19 55.9569 779.982 56.165C779.779 56.3682 779.62 56.6061 779.511 56.8737C779.397 57.1463 779.343 57.4238 779.343 57.7162C779.343 58.0037 779.402 58.2862 779.511 58.5538C779.62 58.8214 779.779 59.0593 779.987 59.2625C780.19 59.4706 780.428 59.6292 780.695 59.7383C780.963 59.8473 781.24 59.9018 781.533 59.9018C781.82 59.9018 782.097 59.8473 782.365 59.7333C782.633 59.6243 782.87 59.4657 783.074 59.2575C783.277 59.0543 783.435 58.8165 783.544 58.5488C783.658 58.2763 783.713 57.9987 783.708 57.7063C783.708 57.4189 783.648 57.1413 783.539 56.8737C783.425 56.6061 783.267 56.3732 783.064 56.17C782.861 55.9668 782.623 55.8082 782.36 55.6992C782.092 55.5901 781.815 55.5356 781.528 55.5356V55.5208ZM804.617 55.5208C804.33 55.5208 804.047 55.5753 803.78 55.6893C803.512 55.7983 803.279 55.9569 803.076 56.165C802.868 56.3682 802.71 56.6061 802.601 56.8737C802.492 57.1413 802.432 57.4238 802.432 57.7113C802.432 58.0037 802.492 58.2812 802.601 58.5488C802.71 58.8214 802.868 59.0543 803.076 59.2625C803.279 59.4657 803.512 59.6243 803.78 59.7383C804.047 59.8473 804.33 59.9018 804.617 59.9018C804.905 59.9018 805.187 59.8473 805.455 59.7383C805.722 59.6243 805.955 59.4657 806.163 59.2625C806.366 59.0543 806.525 58.8214 806.634 58.5488C806.743 58.2812 806.802 58.0037 806.802 57.7113C806.797 57.4238 806.743 57.1463 806.634 56.8787C806.52 56.616 806.366 56.3781 806.163 56.1749C805.96 55.9718 805.722 55.8132 805.46 55.7041C805.192 55.5901 804.915 55.5356 804.627 55.5356L804.617 55.5208ZM827.707 55.5208C827.419 55.5208 827.142 55.5753 826.874 55.6893C826.607 55.7983 826.369 55.9569 826.166 56.165C825.958 56.3682 825.804 56.6061 825.69 56.8737C825.581 57.1413 825.527 57.4238 825.527 57.7113C825.527 58.0037 825.581 58.2812 825.69 58.5488C825.804 58.8214 825.958 59.0543 826.166 59.2625C826.369 59.4657 826.607 59.6243 826.874 59.7383C827.142 59.8473 827.419 59.9018 827.707 59.9018C827.999 59.9018 828.277 59.8473 828.544 59.7383C828.812 59.6243 829.045 59.4657 829.253 59.2625C829.456 59.0543 829.614 58.8214 829.723 58.5488C829.837 58.2812 829.892 58.0037 829.892 57.7113C829.892 57.4238 829.833 57.1463 829.723 56.8787C829.61 56.6111 829.451 56.3732 829.248 56.17C829.045 55.9668 828.807 55.8082 828.539 55.6992C828.277 55.5901 827.994 55.5356 827.707 55.5356V55.5208ZM850.796 55.5208C850.509 55.5208 850.232 55.5753 849.964 55.6843C849.697 55.7983 849.459 55.9569 849.251 56.1601C849.047 56.3633 848.889 56.6012 848.78 56.8688C848.666 57.1364 848.611 57.4189 848.611 57.7113C848.611 57.9987 848.666 58.2812 848.775 58.5488C848.884 58.8165 849.042 59.0543 849.246 59.2575C849.454 59.4657 849.687 59.6243 849.954 59.7383C850.222 59.8473 850.499 59.9018 850.792 59.9018C851.079 59.9018 851.361 59.8473 851.629 59.7383C851.896 59.6243 852.129 59.4657 852.337 59.2625C852.541 59.0593 852.699 58.8214 852.808 58.5538C852.922 58.2812 852.977 58.0037 852.977 57.7113C852.977 57.4238 852.917 57.1463 852.808 56.8787C852.694 56.6111 852.541 56.3781 852.332 56.1749C852.129 55.9668 851.896 55.8132 851.629 55.6992C851.361 55.5901 851.089 55.5356 850.796 55.5356V55.5208ZM873.891 55.5208C873.599 55.5257 873.321 55.5802 873.059 55.6942C872.791 55.8082 872.553 55.9668 872.35 56.1749C872.147 56.3831 871.993 56.616 871.884 56.8886C871.775 57.1562 871.721 57.4338 871.721 57.7262C871.726 58.0136 871.78 58.2961 871.894 58.5637C872.008 58.8313 872.167 59.0643 872.37 59.2674C872.578 59.4756 872.811 59.6292 873.078 59.7383C873.346 59.8522 873.628 59.9068 873.916 59.9018C874.203 59.9018 874.481 59.8473 874.748 59.7333C875.016 59.6193 875.249 59.4607 875.457 59.2575C875.66 59.0494 875.814 58.8115 875.928 58.5439C876.036 58.2763 876.091 57.9987 876.091 57.7063C876.086 57.4189 876.032 57.1364 875.918 56.8688C875.804 56.6012 875.645 56.3682 875.437 56.165C875.234 55.9569 874.996 55.8033 874.728 55.6942C874.456 55.5852 874.178 55.5307 873.891 55.5356V55.5208ZM896.976 55.5208C896.683 55.5208 896.406 55.5753 896.138 55.6893C895.871 55.7983 895.638 55.9569 895.43 56.165C895.227 56.3682 895.068 56.6061 894.959 56.8737C894.845 57.1413 894.791 57.4238 894.791 57.7113C894.791 58.0037 894.845 58.2812 894.959 58.5488C895.068 58.8214 895.227 59.0543 895.43 59.2625C895.638 59.4657 895.871 59.6243 896.138 59.7383C896.406 59.8473 896.683 59.9018 896.976 59.9018C897.263 59.9018 897.541 59.8473 897.808 59.7383C898.076 59.6243 898.314 59.4657 898.517 59.2625C898.725 59.0543 898.878 58.8214 898.992 58.5488C899.101 58.2812 899.156 58.0037 899.156 57.7113C899.156 57.4238 899.101 57.1463 898.987 56.8787C898.878 56.6111 898.72 56.3732 898.512 56.17C898.309 55.9668 898.076 55.8082 897.808 55.6992C897.541 55.5901 897.263 55.5356 896.976 55.5356V55.5208ZM920.065 55.5208C919.778 55.5208 919.496 55.5753 919.228 55.6893C918.96 55.7983 918.728 55.9569 918.519 56.165C918.316 56.3682 918.158 56.6061 918.049 56.8737C917.94 57.1413 917.88 57.4238 917.88 57.7113C917.88 58.0037 917.94 58.2812 918.049 58.5488C918.158 58.8214 918.316 59.0543 918.519 59.2625C918.728 59.4657 918.96 59.6243 919.228 59.7383C919.496 59.8473 919.778 59.9018 920.065 59.9018C920.353 59.9018 920.635 59.8473 920.903 59.7383C921.17 59.6243 921.403 59.4657 921.606 59.2625C921.814 59.0543 921.973 58.8214 922.082 58.5488C922.191 58.2812 922.25 58.0037 922.25 57.7113C922.245 57.4238 922.191 57.1463 922.077 56.8787C921.968 56.6111 921.809 56.3732 921.606 56.17C921.398 55.9668 921.165 55.8082 920.898 55.6992C920.63 55.5901 920.353 55.5356 920.065 55.5356V55.5208ZM943.155 55.5208C942.868 55.5208 942.585 55.5703 942.318 55.6794C942.045 55.7884 941.807 55.947 941.604 56.1502C941.396 56.3534 941.237 56.5912 941.123 56.8589C941.009 57.1265 940.95 57.409 940.95 57.7014C940.95 57.9888 941.005 58.2713 941.114 58.5389C941.223 58.8115 941.381 59.0494 941.584 59.2575C941.787 59.4607 942.025 59.6243 942.293 59.7333C942.56 59.8473 942.838 59.9018 943.13 59.9018C943.418 59.9018 943.7 59.8473 943.968 59.7383C944.235 59.6243 944.473 59.4657 944.676 59.2625C944.884 59.0543 945.043 58.8165 945.152 58.5488C945.261 58.2812 945.315 57.9987 945.315 57.7063C945.315 57.4189 945.256 57.1463 945.147 56.8787C945.038 56.616 944.879 56.3781 944.681 56.1749C944.478 55.9718 944.245 55.8181 943.982 55.7041C943.715 55.5951 943.442 55.5356 943.155 55.5356V55.5208Z" fill="black"/>
</g>
</g>
<defs>
<clipPath id="clip0_32_12386">
<rect width="1374" height="774" fill="white" transform="translate(0 -6)"/>
</clipPath>
</defs>
</svg>
